<svg width="36" height="36" viewBox="0 0 36 36" fill="none" xmlns="http://www.w3.org/2000/svg">
<path d="M16.1022 21.1563V20.8068C16.1022 19.8409 16.1817 19.071 16.3408 18.4972C16.5056 17.9233 16.7442 17.4631 17.0567 17.1165C17.3692 16.7642 17.7499 16.4432 18.1988 16.1534C18.5567 15.9261 18.8749 15.696 19.1533 15.4631C19.4374 15.2244 19.6618 14.9688 19.8266 14.696C19.9914 14.4233 20.0738 14.1136 20.0738 13.7671C20.0738 13.4318 19.9942 13.1364 19.8351 12.8807C19.676 12.625 19.4573 12.429 19.1789 12.2926C18.9062 12.1506 18.6022 12.0796 18.267 12.0796C17.9317 12.0796 17.6164 12.1563 17.3209 12.3097C17.0312 12.4631 16.7925 12.6818 16.605 12.9659C16.4232 13.2443 16.3295 13.5824 16.3238 13.9801H12.4033C12.4204 12.7869 12.6959 11.8097 13.23 11.0483C13.7698 10.2869 14.4829 9.72444 15.3692 9.3608C16.2556 8.99148 17.2329 8.80682 18.301 8.80682C19.4715 8.80682 20.5113 8.98864 21.4204 9.35228C22.3351 9.71591 23.0539 10.2528 23.5766 10.9631C24.0993 11.6733 24.3607 12.5426 24.3607 13.571C24.3607 14.2472 24.2471 14.8438 24.0198 15.3608C23.7925 15.8778 23.4743 16.3352 23.0653 16.733C22.6618 17.125 22.1874 17.483 21.642 17.8068C21.2158 18.0568 20.8607 18.3182 20.5766 18.5909C20.2982 18.8636 20.088 19.1761 19.9459 19.5284C19.8039 19.875 19.7329 20.3011 19.7329 20.8068V21.1563H16.1022ZM17.9857 26.7472C17.3721 26.7472 16.8465 26.5313 16.409 26.0994C15.9772 25.6676 15.7641 25.1449 15.7698 24.5313C15.7641 23.929 15.9772 23.4148 16.409 22.9886C16.8465 22.5568 17.3721 22.3409 17.9857 22.3409C18.5709 22.3409 19.0851 22.5568 19.5283 22.9886C19.9715 23.4148 20.1959 23.929 20.2016 24.5313C20.1959 24.9403 20.088 25.3125 19.8778 25.6477C19.6732 25.983 19.4033 26.25 19.0681 26.4489C18.7385 26.6477 18.3778 26.7472 17.9857 26.7472Z" fill="black"/>
</svg>
